{
	"asset":{
		"generator":"Khronos glTF Blender I/O v3.5.30",
		"version":"2.0"
	},
	"scene":0,
	"scenes":[
		{
			"name":"Scene",
			"nodes":[
				0,
				1,
				2,
				3
			]
		}
	],
	"nodes":[
		{
			"mesh":0,
			"name":"Sphere"
		},
		{
			"mesh":1,
			"name":"Cylinder.003",
			"rotation":[
				-0.7001924514770508,
				-0.6705852150917053,
				-0.16289664804935455,
				0.18305957317352295
			],
			"scale":[
				2.9119603633880615,
				0.09159410744905472,
				2.9119603633880615
			],
			"translation":[
				0.1800527572631836,
				-8.25731086730957,
				2.231269359588623
			]
		},
		{
			"mesh":2,
			"name":"Sphere.001",
			"scale":[
				0.49429067969322205,
				0.49429067969322205,
				0.49429067969322205
			],
			"translation":[
				0,
				-5.567537784576416,
				0
			]
		},
		{
			"mesh":3,
			"name":"Cylinder",
			"rotation":[
				0,
				0.7071068286895752,
				0.7071068286895752,
				0
			],
			"scale":[
				-1.5400002002716064,
				-1.062416434288025,
				-1.5400002002716064
			],
			"translation":[
				0,
				3.402754545211792,
				2.25197172164917
			]
		}
	],
	"materials":[
		{
			"doubleSided":true,
			"name":"Material.002",
			"pbrMetallicRoughness":{
				"baseColorFactor":[
					0.8829235434532166,
					0.8049259781837463,
					0.8049259781837463,
					1
				],
				"metallicFactor":0,
				"roughnessFactor":0.5
			}
		},
		{
			"doubleSided":true,
			"name":"Material.008",
			"pbrMetallicRoughness":{
				"baseColorFactor":[
					0.7991031408309937,
					0.03820415958762169,
					0.030713478103280067,
					1
				],
				"metallicFactor":0,
				"roughnessFactor":0.5
			}
		},
		{
			"doubleSided":true,
			"name":"Material.012",
			"pbrMetallicRoughness":{
				"baseColorFactor":[
					0.7991031408309937,
					0.03820415958762169,
					0.030713478103280067,
					1
				],
				"metallicFactor":0,
				"roughnessFactor":0.5
			}
		},
		{
			"doubleSided":true,
			"name":"Material.010",
			"pbrMetallicRoughness":{
				"baseColorFactor":[
					0.12371030449867249,
					0.12371030449867249,
					0.12371030449867249,
					1
				],
				"metallicFactor":0,
				"roughnessFactor":0.5
			}
		},
		{
			"doubleSided":true,
			"name":"Material.001",
			"pbrMetallicRoughness":{
				"baseColorFactor":[
					0.03741002455353737,
					0.03741002455353737,
					0.03741002455353737,
					1
				],
				"metallicFactor":0,
				"roughnessFactor":0.5
			}
		},
		{
			"doubleSided":true,
			"name":"Material.013",
			"pbrMetallicRoughness":{
				"metallicFactor":0,
				"roughnessFactor":0.5
			}
		}
	],
	"meshes":[
		{
			"name":"Sphere",
			"primitives":[
				{
					"attributes":{
						"POSITION":0,
						"TEXCOORD_0":1,
						"NORMAL":2
					},
					"indices":3,
					"material":0
				},
				{
					"attributes":{
						"POSITION":4,
						"TEXCOORD_0":5,
						"NORMAL":6
					},
					"indices":7
				},
				{
					"attributes":{
						"POSITION":8,
						"TEXCOORD_0":9,
						"NORMAL":10
					},
					"indices":11
				},
				{
					"attributes":{
						"POSITION":12,
						"TEXCOORD_0":13,
						"NORMAL":14
					},
					"indices":15,
					"material":1
				}
			]
		},
		{
			"name":"Cylinder.003",
			"primitives":[
				{
					"attributes":{
						"POSITION":16,
						"TEXCOORD_0":17,
						"NORMAL":18
					},
					"indices":19,
					"material":2
				}
			]
		},
		{
			"name":"Sphere.001",
			"primitives":[
				{
					"attributes":{
						"POSITION":20,
						"TEXCOORD_0":21,
						"NORMAL":22
					},
					"indices":23,
					"material":3
				}
			]
		},
		{
			"name":"Cylinder.004",
			"primitives":[
				{
					"attributes":{
						"POSITION":24,
						"TEXCOORD_0":25,
						"NORMAL":26
					},
					"indices":27,
					"material":4
				},
				{
					"attributes":{
						"POSITION":28,
						"TEXCOORD_0":29,
						"NORMAL":30
					},
					"indices":31,
					"material":5
				}
			]
		}
	],
	"accessors":[
		{
			"bufferView":0,
			"componentType":5126,
			"count":1448,
			"max":[
				3.3213253021240234,
				8.263035774230957,
				3.3213276863098145
			],
			"min":[
				-3.321326494216919,
				-8.286314010620117,
				-3.32132625579834
			],
			"type":"VEC3"
		},
		{
			"bufferView":1,
			"componentType":5126,
			"count":1448,
			"type":"VEC2"
		},
		{
			"bufferView":2,
			"componentType":5126,
			"count":1448,
			"type":"VEC3"
		},
		{
			"bufferView":3,
			"componentType":5123,
			"count":2364,
			"type":"SCALAR"
		},
		{
			"bufferView":4,
			"componentType":5126,
			"count":56,
			"max":[
				2.4717254638671875,
				8.263035774230957,
				2.5201492309570312
			],
			"min":[
				-2.4717254638671875,
				8.203166961669922,
				0.45817601680755615
			],
			"type":"VEC3"
		},
		{
			"bufferView":5,
			"componentType":5126,
			"count":56,
			"type":"VEC2"
		},
		{
			"bufferView":6,
			"componentType":5126,
			"count":56,
			"type":"VEC3"
		},
		{
			"bufferView":7,
			"componentType":5123,
			"count":84,
			"type":"SCALAR"
		},
		{
			"bufferView":8,
			"componentType":5126,
			"count":32,
			"max":[
				2.5201497077941895,
				8.263035774230957,
				-6.742514813140588e-08
			],
			"min":[
				5.247711101219465e-07,
				8.203166961669922,
				-2.5201497077941895
			],
			"type":"VEC3"
		},
		{
			"bufferView":9,
			"componentType":5126,
			"count":32,
			"type":"VEC2"
		},
		{
			"bufferView":10,
			"componentType":5126,
			"count":32,
			"type":"VEC3"
		},
		{
			"bufferView":11,
			"componentType":5123,
			"count":48,
			"type":"SCALAR"
		},
		{
			"bufferView":12,
			"componentType":5126,
			"count":480,
			"max":[
				2.5201497077941895,
				11.78278923034668,
				2.5201492309570312
			],
			"min":[
				-2.5201492309570312,
				8.263035774230957,
				-2.5201497077941895
			],
			"type":"VEC3"
		},
		{
			"bufferView":13,
			"componentType":5126,
			"count":480,
			"type":"VEC2"
		},
		{
			"bufferView":14,
			"componentType":5126,
			"count":480,
			"type":"VEC3"
		},
		{
			"bufferView":15,
			"componentType":5123,
			"count":672,
			"type":"SCALAR"
		},
		{
			"bufferView":16,
			"componentType":5126,
			"count":456,
			"max":[
				1.0000001192092896,
				52.92564392089844,
				2.5121002197265625
			],
			"min":[
				-1.8154573440551758,
				-63.619197845458984,
				-1.0000001192092896
			],
			"type":"VEC3"
		},
		{
			"bufferView":17,
			"componentType":5126,
			"count":456,
			"type":"VEC2"
		},
		{
			"bufferView":18,
			"componentType":5126,
			"count":456,
			"type":"VEC3"
		},
		{
			"bufferView":19,
			"componentType":5123,
			"count":864,
			"type":"SCALAR"
		},
		{
			"bufferView":20,
			"componentType":5126,
			"count":2016,
			"max":[
				3.3213253021240234,
				11.78278923034668,
				3.3213276863098145
			],
			"min":[
				-3.321326494216919,
				-8.286314010620117,
				-3.32132625579834
			],
			"type":"VEC3"
		},
		{
			"bufferView":21,
			"componentType":5126,
			"count":2016,
			"type":"VEC2"
		},
		{
			"bufferView":22,
			"componentType":5126,
			"count":2016,
			"type":"VEC3"
		},
		{
			"bufferView":23,
			"componentType":5123,
			"count":3168,
			"type":"SCALAR"
		},
		{
			"bufferView":24,
			"componentType":5126,
			"count":736,
			"max":[
				1,
				3.060920238494873,
				2.858931064605713
			],
			"min":[
				-1,
				-1,
				-1
			],
			"type":"VEC3"
		},
		{
			"bufferView":25,
			"componentType":5126,
			"count":736,
			"type":"VEC2"
		},
		{
			"bufferView":26,
			"componentType":5126,
			"count":736,
			"type":"VEC3"
		},
		{
			"bufferView":27,
			"componentType":5123,
			"count":1410,
			"type":"SCALAR"
		},
		{
			"bufferView":28,
			"componentType":5126,
			"count":32,
			"max":[
				0.8567125201225281,
				-0.9162793159484863,
				0.8595623970031738
			],
			"min":[
				-0.8531703948974609,
				-0.982829213142395,
				-0.8508144617080688
			],
			"type":"VEC3"
		},
		{
			"bufferView":29,
			"componentType":5126,
			"count":32,
			"type":"VEC2"
		},
		{
			"bufferView":30,
			"componentType":5126,
			"count":32,
			"type":"VEC3"
		},
		{
			"bufferView":31,
			"componentType":5123,
			"count":90,
			"type":"SCALAR"
		}
	],
	"bufferViews":[
		{
			"buffer":0,
			"byteLength":17376,
			"byteOffset":0,
			"target":34962
		},
		{
			"buffer":0,
			"byteLength":11584,
			"byteOffset":17376,
			"target":34962
		},
		{
			"buffer":0,
			"byteLength":17376,
			"byteOffset":28960,
			"target":34962
		},
		{
			"buffer":0,
			"byteLength":4728,
			"byteOffset":46336,
			"target":34963
		},
		{
			"buffer":0,
			"byteLength":672,
			"byteOffset":51064,
			"target":34962
		},
		{
			"buffer":0,
			"byteLength":448,
			"byteOffset":51736,
			"target":34962
		},
		{
			"buffer":0,
			"byteLength":672,
			"byteOffset":52184,
			"target":34962
		},
		{
			"buffer":0,
			"byteLength":168,
			"byteOffset":52856,
			"target":34963
		},
		{
			"buffer":0,
			"byteLength":384,
			"byteOffset":53024,
			"target":34962
		},
		{
			"buffer":0,
			"byteLength":256,
			"byteOffset":53408,
			"target":34962
		},
		{
			"buffer":0,
			"byteLength":384,
			"byteOffset":53664,
			"target":34962
		},
		{
			"buffer":0,
			"byteLength":96,
			"byteOffset":54048,
			"target":34963
		},
		{
			"buffer":0,
			"byteLength":5760,
			"byteOffset":54144,
			"target":34962
		},
		{
			"buffer":0,
			"byteLength":3840,
			"byteOffset":59904,
			"target":34962
		},
		{
			"buffer":0,
			"byteLength":5760,
			"byteOffset":63744,
			"target":34962
		},
		{
			"buffer":0,
			"byteLength":1344,
			"byteOffset":69504,
			"target":34963
		},
		{
			"buffer":0,
			"byteLength":5472,
			"byteOffset":70848,
			"target":34962
		},
		{
			"buffer":0,
			"byteLength":3648,
			"byteOffset":76320,
			"target":34962
		},
		{
			"buffer":0,
			"byteLength":5472,
			"byteOffset":79968,
			"target":34962
		},
		{
			"buffer":0,
			"byteLength":1728,
			"byteOffset":85440,
			"target":34963
		},
		{
			"buffer":0,
			"byteLength":24192,
			"byteOffset":87168,
			"target":34962
		},
		{
			"buffer":0,
			"byteLength":16128,
			"byteOffset":111360,
			"target":34962
		},
		{
			"buffer":0,
			"byteLength":24192,
			"byteOffset":127488,
			"target":34962
		},
		{
			"buffer":0,
			"byteLength":6336,
			"byteOffset":151680,
			"target":34963
		},
		{
			"buffer":0,
			"byteLength":8832,
			"byteOffset":158016,
			"target":34962
		},
		{
			"buffer":0,
			"byteLength":5888,
			"byteOffset":166848,
			"target":34962
		},
		{
			"buffer":0,
			"byteLength":8832,
			"byteOffset":172736,
			"target":34962
		},
		{
			"buffer":0,
			"byteLength":2820,
			"byteOffset":181568,
			"target":34963
		},
		{
			"buffer":0,
			"byteLength":384,
			"byteOffset":184388,
			"target":34962
		},
		{
			"buffer":0,
			"byteLength":256,
			"byteOffset":184772,
			"target":34962
		},
		{
			"buffer":0,
			"byteLength":384,
			"byteOffset":185028,
			"target":34962
		},
		{
			"buffer":0,
			"byteLength":180,
			"byteOffset":185412,
			"target":34963
		}
	],
	"buffers":[
		{
			"byteLength":185592,
			"uri":"data:application/octet-stream;base64,"
		}
	]
}
